<svg width="95" height="49" viewBox="0 0 95 49" fill="none" xmlns="http://www.w3.org/2000/svg"><g clip-path="url(#clip0_1919_12611)"><path d="M94.5 0H.5v49h94V0z" fill="#fff"/><path d="M46.352 2.334H2.793V46.67h43.559V2.334z" fill="#EC1D26"/><path d="M11.98 37.339h6.865v-16.34H11.98v16.34zm3.424-26.137c-.77 0-1.524.232-2.165.668a3.951 3.951 0 00-1.435 1.78 4.03 4.03 0 00-.221 2.29 3.98 3.98 0 001.066 2.031c.545.555 1.24.932 1.995 1.085.756.153 1.54.075 2.251-.225.712-.3 1.32-.809 1.749-1.46a4.015 4.015 0 00.36-3.721 3.972 3.972 0 00-.845-1.287 3.892 3.892 0 00-1.264-.86 3.844 3.844 0 00-1.49-.301zm14.902.463v7.004h6.883v-7.004h-6.883zm-9.171 25.674h6.882V11.665h-6.882v25.674zm9.171-9.335h6.883V21h-6.883v7.004z" fill="#fff"/><path d="M92.203 2.334H48.644V46.67h43.56V2.334z" fill="#EC1D26"/><path d="M56.234 11.703c2.102 0 3.668.899 3.668 3.364 0 2.334-1.613 3.308-3.668 3.308h-1.699v-6.672h1.699zm-.445 5.65h.34c1.379 0 2.483-.585 2.483-2.297 0-1.794-1.105-2.302-2.484-2.302h-.34v4.598zm5.289-5.65h3.676v1.11h-2.43v1.604h2.243v1.082h-2.242v1.756h2.466v1.12h-3.703l-.01-6.672zm8.324 1.213a3.106 3.106 0 00-1.264-.287c-.659 0-1.077.298-1.077.758s.204.667 1.121 1.037c1.155.442 1.644 1.013 1.644 1.998 0 1.283-.906 2.074-2.34 2.074a4.66 4.66 0 01-1.644-.287l.115-1.175a3.15 3.15 0 001.465.377c.659 0 1.13-.298 1.13-.833 0-.536-.258-.775-1.202-1.148-1.1-.429-1.573-.965-1.573-1.912 0-1.186.897-1.93 2.225-1.93.51-.01 1.019.071 1.502.24l-.102 1.088zm1.548-1.213h1.253v6.672h-1.254v-6.672zm7.583 1.387a3.64 3.64 0 00-1.648-.374c-1.318 0-2.17.889-2.17 2.303s.774 2.312 2.143 2.312c.247.006.493-.026.73-.093v-1.663h-1.334v-1.054h2.517v3.567a5.963 5.963 0 01-2.09.346c-1.905 0-3.322-1.3-3.322-3.43 0-2.074 1.36-3.374 3.526-3.374.586-.016 1.17.07 1.726.256l-.078 1.203zm5.657-1.387h1.132v6.672h-1.597l-1.593-3.27c-.323-.66-.73-1.615-.9-2.054.027.412.044 1.636.044 2.206v3.112h-1.132v-6.666h1.675L83.385 15c.231.477.66 1.48.846 1.95h.017a63.726 63.726 0 01-.054-2.448l-.004-2.8zM60.167 27.87H58.81l-.54-1.543h-2.592l-.544 1.542h-1.301l2.439-6.672h1.413l2.483 6.672zm-2.758-4.112a30.99 30.99 0 01-.428-1.51h-.017c-.088.345-.32 1.11-.452 1.51l-.516 1.556h1.93l-.517-1.556zm7.255-.356a17.557 17.557 0 01-.231-1.251h-.02c-.044.363-.143.937-.204 1.251l-.924 4.467h-1.586L60 21.197h1.342l.9 3.996c.044.218.241 1.182.292 1.632h.017c.065-.45.241-1.414.285-1.632l.812-3.997h1.665l.852 3.997c.055.228.225 1.193.286 1.632h.017c.064-.44.24-1.383.295-1.632l.89-3.997h1.244l-1.662 6.673H65.66l-.995-4.467zM74.99 27.87h-1.36l-.543-1.543h-2.589l-.543 1.542h-1.29l2.438-6.672h1.413l2.473 6.672zm-2.76-4.112a31.103 31.103 0 01-.427-1.51h-.017c-.088.345-.32 1.11-.455 1.51l-.513 1.556h1.933l-.52-1.556zm3.594-2.561h1.787c1.529 0 2.544.345 2.544 1.749.021.381-.101.756-.342 1.05a1.47 1.47 0 01-.955.526c.434.125.594.395.791.892l.962 2.42h-1.37l-.679-1.894c-.258-.692-.373-.878-1.138-.878h-.34v2.766h-1.256l-.004-6.631zm1.257 2.866h.364c.988 0 1.433-.267 1.433-.937 0-.726-.533-.879-1.433-.879h-.364v1.816zm6.305-2.866c2.1 0 3.669.898 3.669 3.364 0 2.333-1.614 3.308-3.669 3.308h-1.698v-6.672h1.698zm-.445 5.649h.34c1.382 0 2.483-.57 2.483-2.3 0-1.797-1.104-2.302-2.483-2.302h-.34v4.602zm-28.476 4.401a4.573 4.573 0 011.91-.384c1.181 0 2.19.605 2.19 1.884 0 .823-.377 1.56-1.56 2.69-.396.38-.822.726-1.273 1.037.578 0 1.328-.027 1.896-.027H58.7v1.016h-4.365v-1.058c2.055-1.697 2.88-2.582 2.88-3.516 0-.691-.506-.999-1.148-.999-.52.011-1.03.163-1.474.439l-.129-1.082zm9.775 2.98c0 2.109-.68 3.388-2.328 3.388-1.647 0-2.357-1.262-2.357-3.312 0-2.323.76-3.426 2.401-3.426 1.512-.014 2.283 1.106 2.283 3.35zm-3.398-.038c0 1.642.377 2.465 1.067 2.465s1.043-.823 1.043-2.4c0-1.576-.374-2.42-1.053-2.42-.68 0-1.053.782-1.053 2.341l-.004.014zm4.252-2.942A4.557 4.557 0 0167 30.863c1.182 0 2.19.605 2.19 1.884 0 .823-.376 1.56-1.559 2.69-.396.38-.822.727-1.273 1.037.577 0 1.328-.027 1.898-.027h1.074v1.016h-4.365v-1.058c2.038-1.697 2.877-2.582 2.877-3.516 0-.691-.503-.999-1.145-.999a2.914 2.914 0 00-1.477.44l-.126-1.083zm6.156 3.378v-.972h.309c1.084 0 1.698-.287 1.698-.93 0-.58-.496-.899-1.23-.899a3.475 3.475 0 00-1.477.346l-.081-1.037a5.04 5.04 0 011.742-.28c1.44 0 2.31.636 2.31 1.697 0 .868-.605 1.383-1.522 1.515v.027c.962.1 1.604.692 1.604 1.594 0 1.175-1.09 1.905-2.64 1.905a5.525 5.525 0 01-1.678-.242l.065-1.093c.49.216 1.015.333 1.549.346.808 0 1.403-.297 1.403-.999s-.632-.989-1.733-.989c-.075 0-.21 0-.32.01z" fill="#fff"/></g><defs><clipPath id="clip0_1919_12611"><path fill="#fff" transform="translate(.5)" d="M0 0h94v49H0z"/></clipPath></defs></svg>